M48
; DRILL file {KiCad (5.1.7-0-10_14)} date Friday, March 25, 2022 at 02:58:10 PM
; FORMAT={-:-/ absolute / inch / decimal}
; #@! TF.CreationDate,2022-03-25T14:58:10-04:00
; #@! TF.GenerationSoftware,Kicad,Pcbnew,(5.1.7-0-10_14)
FMAT,2
INCH
T1C0.0394
%
G90
G05
T1
X3.6535Y-2.6157
X3.6535Y-2.7157
X3.6535Y-2.8157
X3.6535Y-2.9157
X3.6535Y-3.0157
X3.937Y-3.1181
X4.037Y-3.1181
X4.137Y-3.1181
X4.237Y-3.1181
X4.337Y-3.1181
X4.437Y-3.1181
X4.537Y-3.1181
X4.637Y-3.1181
X3.937Y-2.5118
X4.037Y-2.5118
X4.137Y-2.5118
X4.237Y-2.5118
X4.337Y-2.5118
X4.437Y-2.5118
X4.537Y-2.5118
X4.637Y-2.5118
X3.937Y-2.6654
X3.937Y-2.7654
X3.937Y-2.8654
X3.937Y-2.9654
T0
M30
